<svg xmlns="http://www.w3.org/2000/svg" viewBox="0 0 48 48" id="Messages-Bubble-Quotation--Streamline-Ultimate.svg" height="48" width="48"><desc>Messages Bubble Quotation Streamline Icon: https://streamlinehq.com</desc><g><path d="M25.5 1.5a20.98 20.98 0 0 0 -17.84 32l-6.16 13 12.94 -6.16A21 21 0 1 0 25.5 1.5Z" fill="none" stroke="#ffffff" stroke-linecap="round" stroke-linejoin="round" stroke-width="1.5"></path><g><path d="M30 21A1.5 1.5 0 0 0 30 18h0a1.5 1.5 0 1 0 0 3" fill="none" stroke="#ffffff" stroke-linecap="round" stroke-linejoin="round" stroke-width="1.5"></path><path d="M30.34 27.52a5.58 5.58 0 0 0 3.24 -4.76c0 -2 -1.02 -4.52 -3.34 -4.74" fill="none" stroke="#ffffff" stroke-linecap="round" stroke-linejoin="round" stroke-width="1.5"></path></g><g><path d="M19.52 21a1.5 1.5 0 0 0 0 -3h0a1.5 1.5 0 1 0 0 3" fill="none" stroke="#ffffff" stroke-linecap="round" stroke-linejoin="round" stroke-width="1.5"></path><path d="M19.84 27.52a5.58 5.58 0 0 0 3.24 -4.76c0 -2 -1.02 -4.52 -3.34 -4.74" fill="none" stroke="#ffffff" stroke-linecap="round" stroke-linejoin="round" stroke-width="1.5"></path></g></g></svg>