<svg width="34" height="30" viewBox="0 0 34 30" fill="none" xmlns="http://www.w3.org/2000/svg">
<path d="M33.8198 6.61171C33.2181 3.78647 31.6535 1.66026 28.8251 0.553461C26.6287 -0.320326 24.4322 -0.116442 22.2358 0.669966C20.4004 1.33987 18.8057 2.38841 17.3614 3.66997C17.1508 3.84472 17.0304 4.01948 16.6995 3.72822C14.5933 1.74764 12.1561 0.40783 9.20744 0.0874415C7.34195 -0.0873158 5.53664 0.203946 3.91186 1.16511C1.05345 2.88356 -0.481058 6.34958 0.120712 9.96123C0.511862 12.2622 1.59505 14.301 3.06938 16.1069C4.42337 17.7671 10.9225 24.1748 12.6074 25.8933C13.8712 27.1457 15.1048 28.4272 16.3685 29.6797C16.7897 30.1166 17.1207 30.1166 17.542 29.6797C17.7827 29.4467 24.9738 22.1942 28.3136 18.8156C29.3667 17.7379 30.48 16.6894 31.3526 15.4952C32.9172 13.369 33.9101 11.0389 33.9101 8.38841C34.0004 7.77676 33.9402 7.19424 33.8198 6.61171ZM32.7066 8.09715C32.7066 10.4272 31.9844 12.2913 30.9012 14.0098C30.2995 14.9418 29.5773 15.8156 28.795 16.6311C24.9136 20.5049 21.0623 24.4078 17.2411 28.2816C17.0605 28.4564 16.9703 28.4564 16.7897 28.2816C14.6234 26.0972 6.55965 17.9709 4.72425 16.0486C3.09947 14.3302 1.89593 12.3205 1.44461 9.99035C0.96319 7.42725 1.41452 5.0389 3.40036 3.14569C4.96496 1.66026 6.89062 1.04861 9.08708 1.28162C11.4942 1.54375 13.48 2.65055 15.2853 4.13599C15.6765 4.45637 16.0375 4.80589 16.3986 5.1554C16.88 5.5923 17.1508 5.5923 17.6021 5.1554C18.8959 3.9321 20.28 2.88356 21.9349 2.12628C23.1384 1.57288 24.4021 1.25249 25.726 1.25249C29.126 1.22336 31.8641 3.43696 32.526 6.64084C32.6464 7.22336 32.7066 7.77676 32.7066 8.09715ZM22.2959 12.5826C21.4835 12.5826 20.6712 12.5535 19.8588 12.5826C19.4977 12.5826 19.4375 12.4661 19.4375 12.1457C19.4676 11.301 19.4375 10.4855 19.4375 9.64084C19.4375 9.14569 19.1968 8.91268 18.6853 8.91268C17.572 8.91268 16.4588 8.91268 15.3154 8.91268C14.8039 8.91268 14.5632 9.14569 14.5632 9.66997C14.5632 10.5438 14.5632 11.3884 14.5632 12.2622C14.5632 12.5243 14.4729 12.6117 14.2021 12.6117C13.3597 12.6117 12.5473 12.6117 11.7048 12.6117C11.1331 12.6117 10.8924 12.8447 10.8924 13.369C10.8924 13.9224 10.8924 14.4467 10.8924 15.0001C10.8924 15.5826 10.8924 16.1651 10.8924 16.7185C10.8924 17.2137 11.1331 17.4467 11.6747 17.4467C12.4871 17.4467 13.2995 17.4758 14.1119 17.4467C14.4729 17.4467 14.5331 17.5632 14.5331 17.8836C14.503 18.7282 14.5331 19.5438 14.5331 20.3884C14.5331 20.8836 14.7738 21.1166 15.2853 21.1166C16.3986 21.1166 17.5119 21.1166 18.6552 21.1166C19.1667 21.1166 19.4074 20.8836 19.4074 20.3593C19.4074 19.4855 19.4074 18.6408 19.4074 17.7671C19.4074 17.5049 19.4977 17.4175 19.7685 17.4175C20.611 17.4175 21.4535 17.4175 22.2959 17.4175C22.8074 17.4175 23.0481 17.1845 23.0481 16.6894C23.0481 15.5535 23.0481 14.4175 23.0481 13.2816C23.0782 12.8156 22.8375 12.5826 22.2959 12.5826ZM21.8145 15.8156C21.8145 16.1069 21.7243 16.2234 21.4234 16.1942C20.6712 16.1651 19.9189 16.1942 19.1667 16.1942C18.3844 16.1942 18.1738 16.3981 18.1738 17.1263C18.1738 17.9127 18.1738 18.67 18.1738 19.4564C18.1738 19.7476 18.0835 19.8641 17.7827 19.835C17.2411 19.835 16.7597 19.835 16.2181 19.835C15.9473 19.835 15.857 19.7476 15.857 19.4855C15.857 18.6991 15.857 17.9127 15.857 17.1263C15.857 16.3981 15.6464 16.1942 14.8641 16.1942C14.1119 16.1942 13.3897 16.1942 12.6375 16.1942C12.3066 16.1942 12.2163 16.0777 12.2163 15.7573C12.2163 15.2331 12.2163 14.7088 12.2163 14.1554C12.2163 13.8641 12.3066 13.7476 12.6074 13.7768C13.3597 13.8059 14.1119 13.7768 14.8641 13.7768C15.6464 13.7768 15.857 13.5729 15.857 12.8447C15.857 12.0583 15.857 11.301 15.857 10.5146C15.857 10.2234 15.9473 10.1069 16.2481 10.136C16.8198 10.136 17.3012 10.136 17.8428 10.136C18.0835 10.136 18.1738 10.2234 18.1738 10.4564C18.1738 10.8933 18.1738 11.3302 18.1738 11.7671C18.1738 12.1457 18.1738 12.5243 18.1738 12.903C18.1738 13.602 18.3844 13.8059 19.1066 13.8059C19.8588 13.8059 20.611 13.835 21.3632 13.8059C21.6942 13.8059 21.8145 13.9224 21.7844 14.2428C21.8145 14.7671 21.8145 15.2913 21.8145 15.8156Z" fill="white"/>
</svg>
