<svg width="32" height="30" viewBox="0 0 32 30" fill="none" xmlns="http://www.w3.org/2000/svg">
<path d="M18.733 20.2661C18.733 20.696 18.3645 21.0645 17.9346 21.0645H5.49856C5.06867 21.0645 4.7002 20.696 4.7002 20.2661C4.7002 19.8362 5.06867 19.4678 5.49856 19.4678H17.9653C18.3952 19.4678 18.733 19.8362 18.733 20.2661ZM13.5129 23.8895H5.49856C5.06867 23.8895 4.7002 24.2579 4.7002 24.6878C4.7002 25.1177 5.06867 25.4862 5.49856 25.4862H13.5436C13.9735 25.4862 14.342 25.1177 14.342 24.6878C14.3113 24.2272 13.9735 23.8895 13.5129 23.8895ZM9.1526 14.4319H10.6879C10.8107 14.4319 10.9029 14.5241 10.9029 14.6469V16.1208C10.9029 16.5507 11.2099 16.9191 11.6091 16.9498C12.0697 16.9806 12.4689 16.6121 12.4689 16.1515V14.6162C12.4689 14.4933 12.561 14.4012 12.6838 14.4012H14.2191C14.6797 14.4012 15.0482 14.002 15.0175 13.5415C14.9868 13.1116 14.5876 12.8352 14.1884 12.8352H12.7145C12.5917 12.8352 12.4996 12.7431 12.4996 12.6203V11.1464C12.4996 10.7165 12.1925 10.348 11.7933 10.3173C11.3327 10.2866 10.9336 10.6551 10.9336 11.1157V12.651C10.9336 12.7738 10.8414 12.8659 10.7186 12.8659H9.24472C8.81483 12.8659 8.44636 13.173 8.41565 13.5722C8.32353 14.0328 8.69201 14.4319 9.1526 14.4319ZM14.8026 0L22.7555 8.3828V28.1883C22.7555 29.1709 21.9571 30 20.9438 30H2.45864C1.47604 30 0.646973 29.2016 0.646973 28.1883V1.78096C0.646973 0.798362 1.44534 0 2.45864 0H14.8026ZM15.2324 7.92221H20.2069L15.2324 2.67144V7.92221ZM21.2202 28.1883V9.45752H14.9561C14.2498 9.45752 13.6971 8.90481 13.6971 8.19857V1.53531H2.45864C2.30511 1.53531 2.18228 1.65814 2.18228 1.81167V28.219C2.18228 28.3726 2.30511 28.4954 2.45864 28.4954H20.9438C21.0973 28.4647 21.2202 28.3419 21.2202 28.1883ZM31.3532 17.7789V26.2538C31.3532 28.3419 29.6644 30.0307 27.5763 30.0307C25.4883 30.0307 23.7995 28.3419 23.7995 26.2538V17.7789C23.7995 15.6909 25.4883 14.002 27.5763 14.002C29.6644 14.002 31.3532 15.6909 31.3532 17.7789ZM25.3655 17.7789V21.2487H29.8179V17.7789C29.8179 16.5507 28.8046 15.5374 27.5763 15.5374C26.3481 15.5374 25.3655 16.5507 25.3655 17.7789ZM29.8179 26.2538V22.784H25.3655V26.2538C25.3655 27.4821 26.3788 28.4954 27.6071 28.4954C28.8353 28.4647 29.8179 27.4821 29.8179 26.2538Z" fill="white"/>
</svg>
