<?xml version="1.0" standalone="no"?>
<!DOCTYPE svg PUBLIC "-//W3C//DTD SVG 20010904//EN"
 "http://www.w3.org/TR/2001/REC-SVG-20010904/DTD/svg10.dtd">
<svg version="1.0" xmlns="http://www.w3.org/2000/svg"
 width="1024.000000pt" height="1024.000000pt" viewBox="0 0 1024.000000 1024.000000"
 preserveAspectRatio="xMidYMid meet">

<g transform="translate(0.000000,1024.000000) scale(0.100000,-0.100000)"
fill="#000000" stroke="none">
<path d="M3775 8610 c-105 -11 -226 -37 -287 -61 -27 -10 -61 -19 -76 -19 -53
0 -201 -101 -304 -207 -86 -88 -104 -111 -171 -213 -102 -158 -151 -310 -168
-523 -13 -165 -6 -545 13 -657 16 -100 17 -728 1 -920 -30 -353 -34 -473 -23
-755 16 -425 41 -572 125 -752 56 -118 104 -191 185 -277 138 -147 321 -250
513 -290 169 -36 1127 -57 2057 -45 983 12 1138 23 1370 99 203 66 333 156
450 312 75 99 121 189 165 321 46 141 54 229 52 635 -1 241 2 355 10 360 5 4
13 21 16 37 3 17 10 56 16 88 16 92 13 93 -101 34 l-100 -52 -132 0 -133 0
-85 42 c-139 69 -236 190 -268 334 -8 38 -11 102 -8 190 5 120 9 142 36 207
28 69 112 182 134 182 5 0 22 13 36 28 59 62 272 98 377 63 70 -24 173 -98
201 -147 64 -110 87 -242 51 -297 -14 -22 -137 -114 -197 -148 -17 -9 -82 -16
-200 -21 -229 -10 -210 -6 -210 -46 0 -72 79 -166 159 -190 55 -17 138 -14
198 7 57 19 108 60 168 135 22 26 66 78 98 115 32 36 65 78 72 93 22 40 27
121 17 251 -10 116 -11 119 -60 205 -96 169 -92 146 -92 476 0 312 -9 429 -40
516 -10 30 -29 89 -41 130 -26 92 -45 131 -121 243 -82 123 -181 232 -259 285
-271 184 -396 215 -914 226 -481 10 -2446 15 -2530 6z m2564 -570 c57 -8 105
-24 203 -70 71 -32 147 -74 170 -91 89 -71 192 -220 259 -374 22 -50 49 -197
49 -265 0 -92 -29 -292 -44 -302 -18 -12 -51 -9 -72 6 -17 13 -20 32 -25 213
-6 193 -7 200 -41 298 -49 139 -72 180 -137 246 -81 80 -166 121 -323 153 -66
14 -217 16 -1164 17 -1007 1 -1093 0 -1139 -16 -170 -58 -304 -172 -373 -316
-63 -132 -102 -324 -102 -506 0 -39 -5 -75 -10 -78 -6 -4 -47 -7 -93 -7 -100
-1 -153 18 -163 57 -20 81 24 600 48 563 5 -9 8 -7 8 7 0 24 60 140 114 221
53 80 137 168 146 153 5 -8 13 -8 26 -1 11 5 34 12 53 15 18 3 38 10 44 16 6
6 22 11 35 11 13 0 67 11 120 24 87 21 117 23 282 22 102 -2 300 -8 440 -15
157 -8 344 -11 485 -7 127 4 374 9 550 12 176 3 358 10 405 14 123 11 166 11
249 0z m193 -446 c54 -38 85 -92 93 -164 17 -143 -74 -249 -214 -250 -126 0
-221 94 -221 220 0 83 35 144 115 202 37 28 45 29 112 26 60 -3 78 -8 115 -34z
m-1317 -288 c233 -5 280 -12 355 -51 18 -9 43 -15 56 -12 13 2 21 1 19 -3 -3
-4 6 -15 19 -24 20 -13 25 -13 30 -1 3 8 -3 17 -15 20 -11 4 -18 9 -16 12 3 2
19 -3 36 -12 31 -16 43 -29 17 -19 -11 4 -14 -1 -12 -20 2 -15 29 -53 64 -90
33 -36 63 -74 67 -85 3 -12 10 -21 14 -21 3 0 14 -13 23 -28 16 -26 15 -30 -2
-70 -26 -57 -54 -55 -128 9 -17 16 -58 36 -90 45 -80 24 -123 46 -118 61 5 13
-6 17 -144 50 -56 13 -115 18 -230 18 -177 0 -202 -6 -335 -82 -168 -97 -179
-101 -255 -112 -75 -10 -222 -2 -237 13 -15 14 50 117 127 198 77 82 164 143
260 183 47 19 155 32 225 28 22 -1 144 -5 270 -7z m-2122 -194 c25 -25 31 -41
34 -84 3 -45 0 -57 -20 -80 -32 -34 -79 -58 -116 -58 -22 0 -43 12 -76 43 -40
39 -45 48 -45 88 0 25 7 55 16 68 49 69 149 80 207 23z m2471 -322 c141 -21
241 -93 302 -218 26 -55 28 -65 36 -287 5 -126 7 -297 6 -380 l-3 -150 -38
-19 c-50 -24 -98 -15 -145 28 l-35 33 2 193 c1 107 5 198 8 203 9 14 -169 0
-241 -18 -107 -28 -155 -88 -136 -169 21 -95 67 -121 210 -121 l105 0 3 -30
c4 -43 -33 -95 -88 -123 -39 -20 -56 -23 -131 -20 -143 6 -231 63 -287 187
-29 64 -40 166 -23 228 14 51 85 143 110 143 10 0 21 8 24 19 10 39 223 91
375 91 l74 0 -4 60 c-5 69 -27 106 -79 133 -41 22 -150 16 -271 -14 -109 -27
-123 -26 -153 18 -14 21 -25 43 -25 49 0 6 -7 17 -15 24 -8 7 -15 16 -15 21 0
10 114 79 131 79 8 0 28 7 44 16 61 32 147 40 259 24z m-2480 -22 l24 -23 7
-492 7 -492 -34 -21 c-74 -45 -166 -12 -187 68 -14 53 -16 941 -3 954 13 13
71 25 124 27 25 1 45 -6 62 -21z m828 -15 c83 -39 140 -97 169 -171 26 -67 37
-240 38 -603 1 -182 -2 -229 -13 -238 -20 -17 -137 -17 -164 0 -49 31 -52 53
-52 405 l0 327 -25 43 c-36 61 -95 88 -172 78 -43 -5 -53 -9 -38 -15 18 -7 17
-8 -5 -8 -32 -1 -98 -43 -125 -79 -19 -26 -20 -40 -17 -372 2 -190 -1 -350 -5
-356 -14 -19 -71 -44 -100 -44 -33 0 -88 31 -101 57 -5 10 -12 235 -15 506
l-5 487 48 0 c60 0 110 -10 110 -22 0 -5 7 -25 15 -45 l15 -36 30 28 c16 16
60 44 97 62 64 31 73 33 158 30 76 -2 100 -8 157 -34z m893 7 c72 -27 155
-103 155 -142 0 -25 -37 -66 -78 -87 -20 -10 -35 -6 -113 30 -84 38 -96 41
-148 35 -128 -15 -175 -75 -125 -159 6 -11 73 -42 165 -76 85 -31 165 -63 179
-71 100 -53 153 -141 154 -255 0 -59 -5 -81 -33 -138 -47 -98 -128 -154 -263
-183 -128 -27 -261 11 -357 101 -44 41 -101 123 -101 144 0 8 84 50 123 62 24
7 35 2 88 -46 49 -43 71 -56 116 -65 117 -25 213 27 213 116 0 60 -54 98 -210
149 -165 54 -236 107 -287 215 -41 86 -41 133 -2 215 48 98 113 145 244 179
11 3 65 3 120 2 74 -3 116 -9 160 -26z m2014 16 c53 -28 54 -35 23 -142 -17
-55 -85 -265 -153 -469 -139 -421 -142 -426 -237 -439 -68 -9 -115 0 -141 28
-40 43 -102 198 -230 581 -72 215 -131 398 -131 407 0 9 8 19 18 22 37 10 133
18 157 12 50 -13 92 -125 231 -616 29 -104 54 -162 69 -164 6 0 13 27 17 60 3
34 22 113 42 175 19 63 47 164 61 224 15 61 30 115 34 120 5 6 14 33 21 60 25
95 41 127 74 141 41 18 110 18 145 0z m-3066 -203 c-7 -2 -21 -2 -30 0 -10 3
-4 5 12 5 17 0 24 -2 18 -5z m1981 -965 c-10 -12 -13 -18 -6 -14 8 5 21 2 30
-6 9 -8 34 -23 54 -33 21 -11 55 -36 77 -56 l39 -37 -37 -34 c-64 -61 -124
-105 -186 -136 -79 -39 -223 -90 -308 -108 -81 -17 -352 -19 -412 -3 -22 6
-68 15 -103 19 -35 5 -68 13 -75 17 -7 4 -21 9 -32 11 -30 4 -192 99 -256 149
-60 47 -124 119 -111 126 4 3 41 8 82 11 59 6 86 14 124 37 27 17 51 39 53 50
8 28 18 24 68 -30 37 -39 64 -57 133 -84 123 -49 186 -60 352 -61 126 -1 155
2 220 23 120 37 191 74 250 129 58 54 76 66 44 30z m-2274 -50 c12 -15 32 -22
72 -26 l55 -4 6 -122 c12 -246 61 -402 159 -507 24 -25 35 -36 26 -24 -10 12
-18 25 -18 29 0 5 -9 16 -19 25 -11 10 -21 24 -23 32 -2 7 -10 20 -18 26 -13
11 -10 12 18 11 17 -1 32 -6 32 -10 0 -4 11 -8 25 -8 14 0 25 -4 25 -8 0 -5
16 -14 35 -22 19 -8 35 -17 35 -22 0 -4 6 -8 14 -8 7 0 19 -13 26 -30 7 -16
16 -27 20 -25 12 8 60 -16 54 -26 -3 -5 0 -9 5 -9 6 0 11 -4 11 -10 0 -15 42
-60 57 -60 7 0 13 -7 13 -15 0 -8 4 -15 9 -15 5 0 11 -7 15 -15 3 -9 0 -15
-10 -15 -8 0 -13 4 -10 9 4 5 -13 9 -36 9 -26 -1 -61 8 -86 21 -60 31 -64 20
-5 -11 102 -55 66 -53 1303 -50 777 1 1157 6 1185 13 75 20 178 82 240 144
123 125 179 263 196 489 6 77 13 156 15 174 5 31 7 33 26 20 11 -8 35 -33 52
-57 l31 -43 7 -221 c3 -122 11 -239 18 -260 10 -35 8 -43 -22 -105 -25 -50
-58 -92 -133 -166 -84 -83 -113 -105 -180 -136 -118 -54 -197 -79 -257 -80
-16 0 -28 -4 -28 -9 0 -8 -51 -12 -340 -27 -52 -2 -150 -4 -217 -4 -122 0
-153 -4 -153 -22 0 -5 4 -7 9 -4 10 7 30 -14 28 -29 -1 -5 24 -11 56 -13 31
-2 57 -7 57 -12 0 -6 9 -10 20 -10 13 0 20 -7 20 -18 0 -17 12 -20 122 -25 66
-4 157 -7 200 -7 70 0 79 -2 76 -17 -2 -14 3 -17 21 -15 14 2 21 0 17 -7 -7
-11 31 -51 49 -51 7 0 20 -9 30 -20 13 -15 31 -20 67 -20 41 0 51 -3 55 -20 4
-16 14 -20 44 -20 22 0 39 -4 39 -10 0 -5 9 -10 20 -10 11 0 20 -4 20 -10 0
-5 7 -10 15 -10 8 0 15 -4 15 -9 0 -11 59 -33 70 -26 8 5 36 -23 29 -29 -2 -2
-56 -11 -119 -21 -89 -13 -236 -19 -645 -27 -555 -11 -2258 -13 -2310 -2 -45
9 -141 39 -218 68 -257 98 -413 247 -547 521 -50 102 -73 177 -86 274 l-7 53
34 -7 c19 -4 41 -13 50 -21 8 -8 20 -14 26 -14 6 0 14 -8 17 -17 5 -12 9 -14
14 -6 10 16 62 28 62 14 0 -6 9 -11 20 -11 11 0 20 -4 20 -8 0 -4 9 -8 21 -9
13 -1 19 3 16 11 -4 9 2 11 19 8 13 -2 24 0 24 5 0 12 113 10 127 -3 6 -6 34
-14 62 -18 28 -4 51 -11 51 -16 0 -6 5 -10 10 -10 6 0 23 -11 38 -25 15 -14
32 -25 39 -25 7 0 13 -6 13 -14 0 -8 8 -17 19 -21 10 -3 29 -15 42 -25 12 -12
30 -18 40 -15 9 3 20 1 23 -4 4 -6 21 -20 39 -32 18 -12 2 7 -34 42 -36 35
-89 98 -118 139 -29 41 -56 74 -61 73 -9 -2 -85 222 -95 277 -4 28 -35 383
-35 412 0 4 6 5 13 2 7 -2 24 7 37 21 28 30 62 27 90 -7z m237 -523 c9 -25 -4
-29 -17 -6 -7 15 -7 21 0 21 6 0 13 -7 17 -15z m738 -285 c3 -5 19 -10 35 -10
16 0 32 -5 35 -10 4 -6 14 -10 23 -9 10 1 26 1 37 0 19 -1 19 -1 0 -14 -19
-13 -38 -14 -242 -9 -35 1 -63 5 -63 10 0 4 18 6 40 4 31 -3 40 -1 40 11 0 17
34 32 49 22 5 -3 12 -1 16 5 8 13 22 13 30 0z m-884 -47 c13 -16 12 -17 -3 -4
-17 13 -22 21 -14 21 2 0 10 -8 17 -17z m696 11 c-3 -3 -12 -4 -19 -1 -8 3 -5
6 6 6 11 1 17 -2 13 -5z m-656 -61 c13 -16 12 -17 -3 -4 -10 7 -18 15 -18 17
0 8 8 3 21 -13z m2844 -484 c11 -17 0 -20 -21 -4 -17 13 -17 14 -2 15 9 0 20
-5 23 -11z"/>
<path d="M3845 4800 c10 -11 20 -20 23 -20 3 0 -3 9 -13 20 -10 11 -20 20 -23
20 -3 0 3 -9 13 -20z"/>
<path d="M3777 4529 c7 -7 15 -10 18 -7 3 3 -2 9 -12 12 -14 6 -15 5 -6 -5z"/>
<path d="M7251 6564 c-101 -53 -107 -63 -145 -236 -8 -36 11 -37 62 -4 59 39
210 55 294 30 39 -11 65 117 35 175 -17 34 -66 61 -124 67 -42 5 -57 1 -122
-32z"/>
<path d="M4060 3610 c-129 -5 -199 -13 -265 -29 -49 -12 -128 -32 -175 -43
-107 -26 -226 -81 -310 -143 -99 -73 -228 -185 -297 -258 -72 -74 -77 -95 -44
-188 29 -82 193 -438 241 -522 70 -123 166 -208 217 -191 10 4 54 21 98 40
113 47 202 59 336 45 140 -15 270 -52 558 -160 651 -245 848 -283 1166 -231
215 35 534 139 849 276 263 114 444 221 796 467 233 164 300 218 387 314 96
107 108 131 89 186 -15 47 -44 69 -117 88 -39 11 -57 10 -120 -5 -116 -28
-209 -61 -290 -101 -41 -21 -96 -49 -124 -62 -27 -13 -59 -29 -70 -35 -111
-66 -352 -184 -430 -210 -16 -5 -60 -25 -97 -43 -61 -31 -107 -48 -279 -104
-37 -12 -138 -31 -225 -42 -134 -18 -193 -20 -374 -16 -246 6 -304 14 -450 63
-58 19 -121 39 -140 46 -87 28 -237 108 -276 147 -46 46 -74 96 -74 134 0 33
20 46 27 17 4 -15 11 -19 22 -15 37 15 193 44 286 54 55 6 208 15 340 21 344
14 484 47 518 124 10 22 12 51 8 98 -8 82 -43 138 -116 183 l-48 30 -451 6
c-454 7 -598 16 -774 54 -76 16 -103 16 -392 5z"/>
</g>
</svg>
