<svg width="581" height="641" viewBox="0 0 581 641" fill="none" xmlns="http://www.w3.org/2000/svg">
<path fill-rule="evenodd" clip-rule="evenodd" d="M323.251 174.018C335.441 150.988 323.601 122.798 298.621 115.378C280.001 109.848 259.981 118.258 250.901 135.438C238.741 158.458 250.561 186.618 275.521 194.048C294.141 199.598 314.171 191.188 323.251 174.018Z" fill="#F2D377"/>
<path d="M316.701 132.908C316.701 132.908 330.211 128.068 330.611 135.488C331.011 142.908 326.741 150.098 326.741 150.098C326.741 150.098 338.401 139.148 339.571 133.398C340.741 127.658 326.871 129.128 316.701 132.908Z" fill="#F2D377"/>
<path d="M257.461 181.038C257.461 181.038 243.951 185.878 243.551 178.458C243.151 171.038 247.421 163.848 247.421 163.848C247.421 163.848 235.761 174.798 234.591 180.548C233.421 186.298 247.291 184.818 257.461 181.038Z" fill="#F2D377"/>
<path d="M328.231 150.178C324.371 157.868 317.821 164.078 310.771 168.878C308.751 170.348 306.271 171.638 304.111 172.908C302.411 173.708 299.931 174.888 298.241 175.678C291.531 178.408 284.231 180.408 277.071 181.448C275.571 181.768 273.481 181.868 271.951 182.028C267.021 182.568 261.481 182.498 256.571 182.298C261.451 181.598 266.861 181.148 271.711 180.178C292.921 176.588 314.801 167.728 328.231 150.178Z" fill="#131E40"/>
<path fill-rule="evenodd" clip-rule="evenodd" d="M290.391 317.468L287.381 317.418L283.261 317.338C283.271 322.038 283.481 378.078 283.621 421.398C283.721 449.268 261.221 471.928 232.481 472.048V251.628C248.841 261.628 267.281 266.568 287.371 266.908C288.431 266.918 289.471 266.938 290.531 266.918C347.571 266.508 395.001 221.138 397.781 164.158C400.831 101.728 350.981 50.2876 289.281 50.5476C288.221 50.5476 287.151 50.5476 286.081 50.5976C131.571 57.1576 182.011 275.308 182.011 275.308C150.791 246.468 131.181 205.228 131.001 159.378C130.641 70.9676 202.621 -0.852356 291.321 0.00764374C376.811 0.837644 446.881 70.3076 448.431 155.788C450.051 244.508 378.811 317.098 290.391 317.468Z" fill="#F2D377"/>
<path fill-rule="evenodd" clip-rule="evenodd" d="M68.4404 533.991C72.7804 525.791 68.5604 515.751 59.6704 513.111C53.0404 511.141 45.9104 514.141 42.6804 520.251C38.3504 528.451 42.5604 538.471 51.4504 541.121C58.0804 543.101 65.2104 540.101 68.4404 533.991Z" fill="#F2D377"/>
<path d="M66.1104 519.351C66.1104 519.351 70.9203 517.631 71.0603 520.271C71.2003 522.911 69.6804 525.471 69.6804 525.471C69.6804 525.471 73.8303 521.571 74.2503 519.531C74.6703 517.481 69.7304 518.011 66.1104 519.351Z" fill="#F2D377"/>
<path d="M45.0206 536.491C45.0206 536.491 40.2106 538.211 40.0706 535.571C39.9306 532.931 41.4506 530.371 41.4506 530.371C41.4506 530.371 37.3006 534.271 36.8806 536.311C36.4606 538.361 41.4006 537.841 45.0206 536.491Z" fill="#F2D377"/>
<path fill-rule="evenodd" clip-rule="evenodd" d="M70.2202 525.501C70.2202 525.501 64.3002 536.601 44.7002 536.941L70.2202 525.501Z" fill="#F2D377"/>
<path fill-rule="evenodd" clip-rule="evenodd" d="M56.7405 585.071L55.6705 585.051L54.2005 585.021C54.2005 586.691 54.2805 606.651 54.3305 622.071C54.3705 631.991 46.3505 640.061 36.1205 640.101V561.621C41.9505 565.181 48.5105 566.941 55.6705 567.061C56.0505 567.061 56.4205 567.071 56.8005 567.061C77.1105 566.911 94.0005 550.761 94.9905 530.471C96.0705 508.241 78.3305 489.931 56.3605 490.021C55.9805 490.021 55.6005 490.021 55.2205 490.041C0.200478 492.371 18.1605 570.051 18.1605 570.051C7.05048 559.781 0.0604924 545.101 0.000492361 528.771C-0.129508 497.291 25.5005 471.721 57.0805 472.031C87.5205 472.321 112.47 497.061 113.021 527.501C113.59 559.091 88.2305 584.941 56.7405 585.071Z" fill="#F2D377"/>
<path d="M160.94 639.091C155.1 639.091 149.92 637.501 145.41 634.311C140.89 631.121 137.37 626.781 134.85 621.261C132.33 615.751 131.07 609.411 131.07 602.241V493.491C131.07 490.571 132 488.181 133.86 486.321C135.72 484.461 138.11 483.531 141.03 483.531C143.95 483.531 146.34 484.461 148.2 486.321C150.06 488.181 150.99 490.571 150.99 493.491V602.241C150.99 607.151 151.92 611.201 153.78 614.391C155.64 617.581 158.03 619.171 160.95 619.171H165.93C168.58 619.171 170.74 620.101 172.4 621.961C174.06 623.821 174.89 626.211 174.89 629.131C174.89 632.051 173.63 634.441 171.11 636.301C168.59 638.161 165.33 639.091 161.35 639.091H160.94Z" fill="#F2D377"/>
<path d="M291.701 556.421C286.851 548.061 280.311 541.461 272.081 536.611C263.841 531.761 254.551 529.341 244.191 529.341C233.831 529.341 224.511 531.761 216.211 536.611C207.911 541.461 201.331 548.061 196.491 556.421C191.641 564.791 189.221 574.221 189.221 584.711C189.221 595.201 191.441 604.591 195.891 612.891C200.341 621.191 206.411 627.761 214.121 632.611C221.821 637.461 230.511 639.881 240.211 639.881C249.901 639.881 258.601 637.461 266.301 632.611C271.031 629.631 275.151 626.001 278.651 621.721V629.121C278.651 632.051 279.611 634.471 281.541 636.391C283.461 638.321 285.891 639.281 288.811 639.281C291.731 639.281 294.151 638.321 296.081 636.391C298.001 634.471 298.971 632.051 298.971 629.121V584.711C298.971 574.221 296.541 564.791 291.701 556.421ZM274.871 603.731C271.811 609.371 267.631 613.821 262.321 617.071C257.011 620.331 250.961 621.951 244.191 621.951C237.551 621.951 231.551 620.331 226.171 617.071C220.791 613.821 216.541 609.371 213.421 603.731C210.301 598.091 208.741 591.751 208.741 584.711C208.741 577.541 210.301 571.131 213.421 565.491C216.541 559.841 220.791 555.401 226.171 552.141C231.551 548.891 237.551 547.261 244.191 547.261C250.961 547.261 257.011 548.891 262.321 552.141C267.631 555.401 271.811 559.841 274.871 565.491C277.921 571.131 279.451 577.541 279.451 584.711C279.451 591.751 277.921 598.091 274.871 603.731Z" fill="#F2D377"/>
<path d="M431.42 580.131V629.121C431.42 632.051 430.45 634.471 428.53 636.391C426.6 638.321 424.18 639.281 421.26 639.281C418.34 639.281 415.91 638.321 413.99 636.391C412.06 634.471 411.1 632.051 411.1 629.121V580.131C411.1 572.561 409.71 566.381 406.92 561.601C404.13 556.821 400.38 553.271 395.67 550.951C390.95 548.631 385.54 547.461 379.43 547.461C373.86 547.461 368.81 548.591 364.3 550.851C359.78 553.111 356.19 556.131 353.54 559.911C350.88 563.691 349.56 568.051 349.56 572.961V629.121C349.56 632.051 348.62 634.471 346.77 636.391C344.91 638.321 342.45 639.281 339.4 639.281C336.48 639.281 334.05 638.321 332.13 636.391C330.2 634.471 329.24 632.051 329.24 629.121V540.291C329.24 537.241 330.2 534.781 332.13 532.921C334.05 531.061 336.48 530.131 339.4 530.131C342.45 530.131 344.91 531.061 346.77 532.921C348.62 534.781 349.56 537.241 349.56 540.291V542.401C352.5 539.501 355.88 537.011 359.71 534.911C366.75 531.061 374.65 529.141 383.42 529.141C392.58 529.141 400.78 531.101 408.01 535.011C415.25 538.931 420.96 544.671 425.14 552.241C429.33 559.811 431.42 569.111 431.42 580.131Z" fill="#F2D377"/>
<path d="M477.23 512.411C473.65 512.411 470.56 511.111 467.97 508.531C465.38 505.941 464.09 502.851 464.09 499.271C464.09 495.681 465.39 492.601 467.97 490.011C470.56 487.421 473.65 486.131 477.23 486.131C480.81 486.131 483.9 487.421 486.49 490.011C489.08 492.601 490.37 495.691 490.37 499.271C490.37 502.851 489.08 505.941 486.49 508.531C483.9 511.111 480.81 512.411 477.23 512.411ZM477.23 639.091C474.31 639.091 471.88 638.131 469.96 636.201C468.03 634.281 467.07 631.851 467.07 628.931V540.301C467.07 537.251 468.03 534.791 469.96 532.931C471.88 531.071 474.31 530.141 477.23 530.141C480.28 530.141 482.74 531.071 484.6 532.931C486.46 534.791 487.39 537.251 487.39 540.301V628.931C487.39 631.851 486.46 634.281 484.6 636.201C482.73 638.121 480.28 639.091 477.23 639.091Z" fill="#F2D377"/>
<path d="M580.2 629.121C580.2 632.051 579.1 634.441 576.91 636.301C574.72 638.161 571.9 639.081 568.45 639.081H564.86C558.22 639.081 552.24 637.391 546.94 634.001C541.62 630.621 537.44 626.001 534.39 620.161C531.33 614.321 529.81 607.751 529.81 600.441V551.251H520.64C517.86 551.251 515.6 550.451 513.87 548.851C512.15 547.261 511.28 545.271 511.28 542.881C511.28 540.231 512.15 538.101 513.87 536.511C515.6 534.911 517.86 534.121 520.64 534.121H529.81V505.431C529.81 502.521 530.73 500.131 532.59 498.261C534.45 496.411 536.84 495.481 539.77 495.481C542.69 495.481 545.08 496.411 546.94 498.261C548.79 500.131 549.72 502.521 549.72 505.431V534.121H566.66C569.44 534.121 571.7 534.911 573.43 536.511C575.15 538.101 576.02 540.231 576.02 542.881C576.02 545.271 575.15 547.261 573.43 548.851C571.7 550.451 569.44 551.251 566.66 551.251H549.72V600.441C549.72 605.761 551.18 610.201 554.11 613.791C557.03 617.371 560.61 619.171 564.86 619.171H571.63C574.02 619.171 576.05 620.101 577.71 621.951C579.37 623.811 580.2 626.201 580.2 629.121Z" fill="#F2D377"/>
</svg>
